Coordinates
version=1
nRows=7
nColumns=60
inDegrees=yes

Units are S.I. units (second, meters, Newtons, ...)
If the header above contains a line with 'inDegrees', this indicates whether rotational values are in degrees (yes) or radians (no).

endheader
time	pelvis_tilt	pelvis_list	pelvis_rotation	pelvis_tx	pelvis_ty	pelvis_tz	hip_flexion_r	hip_adduction_r	hip_rotation_r	knee_angle_r_beta	knee_angle_r	ankle_angle_r	subtalar_angle_r	mtp_angle_r	hip_flexion_l	hip_adduction_l	hip_rotation_l	knee_angle_l_beta	knee_angle_l	ankle_angle_l	subtalar_angle_l	mtp_angle_l	L5_S1_Flex_Ext	L5_S1_Lat_Bending	L5_S1_axial_rotation	L4_L5_Flex_Ext	L4_L5_Lat_Bending	L4_L5_axial_rotation	L3_L4_Flex_Ext	L3_L4_Lat_Bending	L3_L4_axial_rotation	L2_L3_Flex_Ext	L2_L3_Lat_Bending	L2_L3_axial_rotation	L1_L2_Flex_Ext	L1_L2_Lat_Bending	L1_L2_axial_rotation	L1_T12_Flex_Ext	L1_T12_Lat_Bending	L1_T12_axial_rotation	Abs_r3	Abs_r2	Abs_r1	Abs_t1	Abs_t2	arm_flex_r	arm_add_r	arm_rot_r	elbow_flex_r	pro_sup_r	wrist_flex_r	wrist_dev_r	arm_flex_l	arm_add_l	arm_rot_l	elbow_flex_l	pro_sup_l	wrist_flex_l	wrist_dev_l
      3.00000000	      1.37172371	     -1.03574209	     94.23289507	      0.40887508	      0.90667401	      0.35023256	     23.37502060	     -4.27965156	     -0.42897777	      0.51515284	    -29.51608362	      9.18740558	      0.00000000	      0.00000000	     24.99829583	     -6.70631538	      2.24463436	      0.49615938	    -28.42783833	      8.18939296	      0.00000000	      0.00000000	     -9.41785628	      0.30453821	     -0.10355273	    -17.48990091	      0.40503582	     -0.11002477	    -15.47259609	      0.74045421	     -0.11002477	    -10.76366795	      0.74045421	     -0.09060864	     -8.74542135	      0.62101432	     -0.08413659	     -5.38136308	      0.47172969	     -0.07766455	    -67.27080566	      3.44499716	     -0.57592920	      0.00000000	      0.00000000	     45.36548484	    -21.90518599	     14.30752517	     59.07982911	     66.02009912	     16.74587869	     11.38726850	     52.55929984	    -23.34587054	     26.30878793	     53.56893406	     60.89524348	     23.53600049	      7.05889131
      3.01000000	      1.27652045	     -0.06464149	     94.10753875	      0.40900349	      0.90965302	      0.34756952	     21.75511644	     -4.19919187	     -0.15914040	      0.50286129	    -28.81182938	      9.07403809	      0.00000000	      0.00000000	     23.28860526	     -6.72643051	      2.24456869	      0.48297487	    -27.67242181	      8.09934669	      0.00000000	      0.00000000	     -9.40624582	      0.29214219	     -0.12136022	    -17.46833911	      0.38854911	     -0.12894523	    -15.45352125	      0.71031451	     -0.12894523	    -10.75039835	      0.71031451	     -0.10619019	     -8.73463987	      0.59573634	     -0.09860518	     -5.37472886	      0.45252824	     -0.09102016	    -67.18787325	      3.30477083	     -0.67496912	      0.00000000	      0.00000000	     43.93473481	    -22.09218559	     14.07086302	     60.30067515	     65.81190174	     16.64499486	     11.59781031	     50.97079979	    -23.70267761	     25.46128937	     54.95895232	     60.87727053	     23.50095181	      7.05725095
      3.02000000	      1.24458869	      0.33048707	     94.01232893	      0.40921445	      0.91147148	      0.34502020	     20.84957571	     -4.14959406	     -0.19107596	      0.49291166	    -28.24175793	      9.12628917	      0.00000000	      0.00000000	     22.33122525	     -6.79599678	      2.07082252	      0.47291557	    -27.09606594	      8.20941100	      0.00000000	      0.00000000	     -9.26636920	      0.28113097	     -0.13533055	    -17.20857423	      0.37390419	     -0.14378871	    -15.22371795	      0.68354184	     -0.14378871	    -10.59053335	      0.68354184	     -0.11841423	     -8.60475044	      0.57328227	     -0.10995607	     -5.29480336	      0.43547187	     -0.10149791	    -66.18874853	      3.18020974	     -0.75266790	      0.00000000	      0.00000000	     42.56081479	    -22.21515641	     14.20918688	     60.71814681	     65.73201186	     16.61185015	     11.73864755	     49.55432198	    -23.92459905	     25.35185121	     55.36577380	     60.89703896	     23.49152404	      7.12173914
      3.03000000	      1.18195592	      0.89996466	     93.85084453	      0.40944584	      0.91357018	      0.34233668	     19.64749531	     -4.07303659	      0.05692462	      0.47946586	    -27.47137045	      9.15610522	      0.00000000	      0.00000000	     21.04034328	     -6.82180053	      2.00413134	      0.45892761	    -26.29461518	      8.30181728	      0.00000000	      0.00000000	     -9.16991690	      0.26927765	     -0.14035225	    -17.02945268	      0.35813928	     -0.14912427	    -15.06525648	      0.65472169	     -0.14912427	    -10.48029803	      0.65472169	     -0.12280822	     -8.51518484	      0.54911099	     -0.11403621	     -5.23969052	      0.41711109	     -0.10526419	    -65.49979944	      3.04612267	     -0.78059713	      0.00000000	      0.00000000	     41.08815619	    -22.39549091	     14.19860086	     61.63605944	     65.57253476	     16.54867973	     11.94383668	     47.99264401	    -24.21475698	     24.81642900	     56.34491759	     60.92045101	     23.46940271	      7.18998348
      3.04000000	      1.15487221	      1.66804579	     93.70972458	      0.40967428	      0.91585632	      0.33955823	     18.28978353	     -3.98007645	      0.16138219	      0.46850063	    -26.84310867	      9.13851286	      0.00000000	      0.00000000	     19.62200862	     -6.91285477	      1.88289111	      0.44799156	    -25.66802591	      8.32961106	      0.00000000	      0.00000000	     -9.11740697	      0.25427348	     -0.17588581	    -16.93193648	      0.33818373	     -0.18687867	    -14.97898790	      0.61824054	     -0.18687867	    -10.42028442	      0.61824054	     -0.15390008	     -8.46642411	      0.51851449	     -0.14290722	     -5.20968634	      0.39386962	     -0.13191436	    -65.12472621	      2.87639249	     -0.97822411	      0.00000000	      0.00000000	     39.85906036	    -22.50289918	     14.32727829	     62.92719827	     63.99106725	     14.63352344	     14.89603263	     46.10331266	    -24.58665702	     23.34660827	     58.06049892	     61.80802794	     22.88147136	      9.53138341
      3.05000000	      1.12259296	      2.00222312	     93.57234073	      0.40989841	      0.91728615	      0.33682329	     17.45717576	     -3.94168142	      0.16025292	      0.45893270	    -26.29490673	      9.26448501	      0.00000000	      0.00000000	     18.72564910	     -6.96333391	      1.69857182	      0.43836073	    -25.11621976	      8.50725051	      0.00000000	      0.00000000	     -8.96036635	      0.24093895	     -0.17906051	    -16.64029635	      0.32044880	     -0.19025179	    -14.72098587	      0.58581896	     -0.19025179	    -10.24080270	      0.58581896	     -0.15667795	     -8.32059619	      0.49132271	     -0.14548666	     -5.11995333	      0.37321443	     -0.13429538	    -64.00300079	      2.72554959	     -0.99588084	      0.00000000	      0.00000000	     38.49721280	    -22.70250919	     14.50034696	     63.36750954	     63.97226605	     14.63276263	     14.93241452	     44.72839777	    -24.79190455	     23.29851404	     58.44919988	     61.77771031	     22.91221923	      9.52525967
      3.06000000	      1.05455069	      2.76723833	     93.40681761	      0.41010608	      0.91940825	      0.33393925	     16.07986033	     -3.87228730	      0.50699583	      0.44740347	    -25.63433061	      9.31408679	      0.00000000	      0.00000000	     17.25531078	     -6.98542236	      1.66104539	      0.42629161	    -24.42471002	      8.58301078	      0.00000000	      0.00000000	     -8.90302675	      0.22450977	     -0.18697531	    -16.53381097	      0.29859800	     -0.19866126	    -14.62678264	      0.54587306	     -0.19866126	    -10.17526927	      0.54587306	     -0.16360339	     -8.26735064	      0.45782033	     -0.15191744	     -5.08718948	      0.34776564	     -0.14023148	    -63.59342976	      2.53969945	     -1.03990056	      0.00000000	      0.00000000	     37.09688760	    -22.96782682	     14.40102443	     64.62419237	     63.81351253	     14.56260262	     15.07785345	     43.06134849	    -25.09429712	     22.41164695	     59.82416863	     61.68458497	     22.96656556	      9.49214320
